
  <svg
    width="2000"
    height="2000"
    viewBox="0 0 1000 1000"
    xmlns="http://www.w3.org/2000/svg"
  >
    <defs>
      
      
      <linearGradient id="linearGradientId" gradientTransform="rotate(150 0.5 0.5)">
      <stop offset="0%"  stop-color="#3e9ae1" />
			<stop offset="100%"  stop-color="#1b67a2" />
    </linearGradient>
      
      
      
      
      <clipPath id="shape">
        <path fill="currentColor" d="M885.5,628Q852,756,748.5,851Q645,946,503.5,935.5Q362,925,259,837.5Q156,750,111.5,625Q67,500,104,369.5Q141,239,255,167.5Q369,96,509,69.5Q649,43,764,134Q879,225,899,362.5Q919,500,885.5,628Z"></path>
      </clipPath>
    </defs>
  
    

    <g  clip-path="url(#shape)">
      <path fill="url(#linearGradientId)" d="M885.5,628Q852,756,748.5,851Q645,946,503.5,935.5Q362,925,259,837.5Q156,750,111.5,625Q67,500,104,369.5Q141,239,255,167.5Q369,96,509,69.5Q649,43,764,134Q879,225,899,362.5Q919,500,885.5,628Z" />
    </g>

    
  
  </svg>