<svg id="visual" viewBox="0 0 450 900" width="450" height="900" xmlns="http://www.w3.org/2000/svg" xmlns:xlink="http://www.w3.org/1999/xlink" version="1.1"><rect x="0" y="0" width="450" height="900" fill="#F3EFF5"></rect><g transform="translate(193.11064983080408 444.0507947124694)"><path d="M137.3 -169.8C185.1 -123.6 235.8 -87.1 240.3 -44.9C244.7 -2.7 202.9 45.2 173.2 103.2C143.5 161.3 126 229.6 79.9 266.9C33.8 304.3 -40.8 310.7 -85.2 276.2C-129.5 241.8 -143.6 166.4 -152 108.6C-160.5 50.9 -163.3 10.8 -169.7 -43.3C-176.1 -97.4 -186.1 -165.5 -158.4 -215.3C-130.7 -265.1 -65.4 -296.5 -10.3 -284.3C44.8 -272 89.6 -216.1 137.3 -169.8" fill="#3f9ce3"></path></g></svg>