<?xml version="1.0" encoding="UTF-8"?>
<svg xmlns="http://www.w3.org/2000/svg" xmlns:xlink="http://www.w3.org/1999/xlink" viewBox="0 0 96 96" width="96px" height="96px">
<g id="surface32261154">
<path style=" stroke:none;fill-rule:nonzero;fill:rgb(95.294118%,93.725491%,96.078432%);fill-opacity:1;" d="M 76.25 7.867188 C 61.695312 8.8125 63.824219 8.214844 53.128906 8.214844 C 51.367188 8.214844 45.484375 8.90625 43.722656 8.851562 C 36.851562 8.632812 34.160156 8.707031 29.832031 8.988281 C 23.914062 9.378906 11.542969 7.832031 9.746094 10.980469 C 6.871094 16.027344 7.652344 20.769531 7.441406 24.992188 C 7.230469 29.21875 8.347656 41.191406 8.40625 47.105469 C 8.503906 57.066406 8.949219 59.527344 8.503906 70.484375 C 8.339844 74.480469 7.886719 77.769531 8.363281 81.742188 C 8.839844 85.730469 11.042969 88.910156 22.988281 88.910156 C 31.636719 88.910156 33.765625 87.898438 42.667969 87.523438 C 51.007812 87.171875 52.804688 87.65625 56.109375 87.675781 C 58.777344 87.691406 63.617188 87.773438 66.285156 87.730469 C 68.765625 87.691406 74.558594 88.023438 77.097656 87.816406 C 79.636719 87.613281 83.625 86.972656 85.308594 83.730469 C 85.808594 82.765625 86.054688 81.679688 86.171875 80.597656 C 86.730469 75.484375 86.261719 64.703125 86.15625 63.664062 C 85.1875 53.941406 86.347656 54.398438 86.347656 44.675781 C 86.347656 41.976562 86.105469 33.304688 86.15625 30.609375 C 86.296875 23.777344 86.292969 20.140625 86.15625 17.96875 C 85.636719 9.625 82.085938 7.867188 76.25 7.867188 "/>
<path style=" stroke:none;fill-rule:nonzero;fill:rgb(0.392157%,0.392157%,0.392157%);fill-opacity:1;" d="M 22.992188 89.910156 C 12.585938 89.910156 8.058594 87.578125 7.371094 81.859375 C 7.007812 78.816406 7.171875 76.175781 7.34375 73.378906 C 7.402344 72.429688 7.464844 71.460938 7.503906 70.441406 C 7.800781 63.148438 7.699219 59.621094 7.574219 55.148438 C 7.511719 52.90625 7.441406 50.425781 7.40625 47.117188 C 7.382812 44.503906 7.140625 40.613281 6.910156 36.855469 C 6.609375 31.960938 6.324219 27.339844 6.445312 24.945312 C 6.488281 24.058594 6.484375 23.152344 6.484375 22.226562 C 6.484375 18.691406 6.480469 14.6875 8.875 10.484375 C 10.34375 7.921875 15.648438 7.839844 23.558594 8.007812 C 25.898438 8.054688 28.109375 8.105469 29.769531 7.992188 C 34.191406 7.703125 36.964844 7.636719 43.757812 7.855469 C 44.648438 7.890625 46.839844 7.691406 48.777344 7.523438 C 50.574219 7.367188 52.273438 7.21875 53.128906 7.21875 C 56.613281 7.21875 58.742188 7.28125 60.527344 7.335938 C 64.191406 7.449219 66.398438 7.511719 76.183594 6.875 L 76.246094 6.875 C 82.382812 6.875 86.585938 8.75 87.152344 17.910156 C 87.292969 20.148438 87.296875 23.835938 87.15625 30.632812 C 87.125 32.199219 87.195312 35.875 87.261719 39.121094 C 87.304688 41.429688 87.347656 43.5625 87.347656 44.679688 C 87.347656 48.632812 87.15625 50.890625 86.992188 52.882812 C 86.753906 55.765625 86.578125 57.851562 87.148438 63.566406 C 87.273438 64.769531 87.71875 75.625 87.164062 80.710938 C 87.015625 82.085938 86.699219 83.226562 86.195312 84.195312 C 84.089844 88.257812 78.890625 88.679688 77.179688 88.816406 C 75.5625 88.949219 72.722656 88.871094 70.222656 88.800781 C 68.675781 88.757812 67.242188 88.71875 66.300781 88.730469 C 64.457031 88.757812 61.585938 88.730469 59.101562 88.703125 L 56.105469 88.675781 C 55.046875 88.671875 54.140625 88.621094 53.128906 88.558594 C 51.011719 88.4375 48.375 88.28125 42.710938 88.523438 C 38.789062 88.6875 36.230469 88.972656 33.757812 89.25 C 30.71875 89.589844 27.851562 89.910156 22.992188 89.910156 Z M 19.515625 9.949219 C 15.484375 9.949219 11.347656 10.195312 10.613281 11.476562 C 8.484375 15.214844 8.484375 18.777344 8.488281 22.222656 C 8.488281 23.1875 8.488281 24.125 8.445312 25.042969 C 8.328125 27.328125 8.625 32.109375 8.90625 36.730469 C 9.140625 40.519531 9.382812 44.433594 9.40625 47.097656 C 9.441406 50.390625 9.511719 52.863281 9.574219 55.09375 C 9.703125 59.601562 9.800781 63.164062 9.503906 70.527344 C 9.460938 71.554688 9.398438 72.542969 9.339844 73.503906 C 9.171875 76.207031 9.015625 78.757812 9.359375 81.621094 C 9.738281 84.804688 11.109375 87.914062 22.988281 87.914062 C 27.738281 87.914062 30.425781 87.613281 33.53125 87.265625 C 36.039062 86.984375 38.632812 86.695312 42.625 86.523438 C 48.386719 86.28125 51.082031 86.4375 53.246094 86.5625 C 54.21875 86.621094 55.097656 86.675781 56.117188 86.679688 L 59.125 86.707031 C 61.589844 86.734375 64.4375 86.757812 66.269531 86.734375 C 67.238281 86.722656 68.695312 86.761719 70.277344 86.800781 C 72.734375 86.871094 75.515625 86.945312 77.019531 86.828125 C 79.511719 86.625 82.988281 86.035156 84.421875 83.273438 C 84.808594 82.53125 85.054688 81.621094 85.179688 80.496094 C 85.71875 75.539062 85.28125 64.945312 85.160156 63.769531 C 84.570312 57.867188 84.761719 55.597656 85 52.71875 C 85.160156 50.765625 85.347656 48.554688 85.347656 44.679688 C 85.347656 43.570312 85.304688 41.457031 85.261719 39.160156 C 85.195312 35.894531 85.125 32.199219 85.15625 30.59375 C 85.292969 23.855469 85.292969 20.214844 85.15625 18.035156 C 84.679688 10.351562 81.667969 8.882812 76.28125 8.875 C 66.429688 9.515625 64.1875 9.449219 60.46875 9.335938 C 58.699219 9.285156 56.589844 9.21875 53.128906 9.21875 C 52.359375 9.21875 50.625 9.371094 48.949219 9.515625 C 46.859375 9.699219 44.695312 9.882812 43.695312 9.855469 C 36.941406 9.636719 34.324219 9.703125 29.898438 9.992188 C 28.15625 10.109375 25.902344 10.058594 23.519531 10.007812 C 22.296875 9.976562 20.910156 9.949219 19.515625 9.949219 Z M 19.515625 9.949219 "/>
<path style=" stroke:none;fill-rule:nonzero;fill:rgb(0.392157%,0.392157%,0.392157%);fill-opacity:1;" d="M 22.992188 89.910156 C 12.585938 89.910156 8.058594 87.578125 7.371094 81.859375 C 7.007812 78.816406 7.171875 76.175781 7.34375 73.378906 C 7.402344 72.429688 7.464844 71.460938 7.503906 70.441406 C 7.800781 63.148438 7.699219 59.621094 7.574219 55.148438 C 7.511719 52.90625 7.441406 50.425781 7.40625 47.117188 C 7.382812 44.503906 7.140625 40.613281 6.910156 36.855469 C 6.609375 31.960938 6.324219 27.339844 6.445312 24.945312 C 6.488281 24.058594 6.484375 23.152344 6.484375 22.226562 C 6.484375 18.691406 6.480469 14.6875 8.875 10.484375 C 10.34375 7.921875 15.648438 7.839844 23.558594 8.007812 C 25.898438 8.054688 28.109375 8.105469 29.769531 7.992188 C 34.191406 7.703125 36.964844 7.636719 43.757812 7.855469 C 44.648438 7.890625 46.839844 7.691406 48.777344 7.523438 C 50.574219 7.367188 52.273438 7.21875 53.128906 7.21875 C 56.613281 7.21875 58.742188 7.28125 60.527344 7.335938 C 64.191406 7.449219 66.398438 7.511719 76.183594 6.875 L 76.246094 6.875 C 82.382812 6.875 86.585938 8.75 87.152344 17.910156 C 87.292969 20.148438 87.296875 23.835938 87.15625 30.632812 C 87.125 32.199219 87.195312 35.875 87.261719 39.121094 C 87.304688 41.429688 87.347656 43.5625 87.347656 44.679688 C 87.347656 48.632812 87.15625 50.890625 86.992188 52.882812 C 86.753906 55.765625 86.578125 57.851562 87.148438 63.566406 C 87.273438 64.769531 87.71875 75.625 87.164062 80.710938 C 87.015625 82.085938 86.699219 83.226562 86.195312 84.195312 C 84.089844 88.257812 78.890625 88.679688 77.179688 88.816406 C 75.5625 88.949219 72.722656 88.871094 70.222656 88.800781 C 68.675781 88.757812 67.242188 88.71875 66.300781 88.730469 C 64.457031 88.757812 61.585938 88.730469 59.101562 88.703125 L 56.105469 88.675781 C 55.046875 88.671875 54.140625 88.621094 53.128906 88.558594 C 51.011719 88.4375 48.375 88.28125 42.710938 88.523438 C 38.789062 88.6875 36.230469 88.972656 33.757812 89.25 C 30.71875 89.589844 27.851562 89.910156 22.992188 89.910156 Z M 19.515625 9.949219 C 15.484375 9.949219 11.347656 10.195312 10.613281 11.476562 C 8.484375 15.214844 8.484375 18.777344 8.488281 22.222656 C 8.488281 23.1875 8.488281 24.125 8.445312 25.042969 C 8.328125 27.328125 8.625 32.109375 8.90625 36.730469 C 9.140625 40.519531 9.382812 44.433594 9.40625 47.097656 C 9.441406 50.390625 9.511719 52.863281 9.574219 55.09375 C 9.703125 59.601562 9.800781 63.164062 9.503906 70.527344 C 9.460938 71.554688 9.398438 72.542969 9.339844 73.503906 C 9.171875 76.207031 9.015625 78.757812 9.359375 81.621094 C 9.738281 84.804688 11.109375 87.914062 22.988281 87.914062 C 27.738281 87.914062 30.425781 87.613281 33.53125 87.265625 C 36.039062 86.984375 38.632812 86.695312 42.625 86.523438 C 48.386719 86.28125 51.082031 86.4375 53.246094 86.5625 C 54.21875 86.621094 55.097656 86.675781 56.117188 86.679688 L 59.125 86.707031 C 61.589844 86.734375 64.4375 86.757812 66.269531 86.734375 C 67.238281 86.722656 68.695312 86.761719 70.277344 86.800781 C 72.734375 86.871094 75.515625 86.945312 77.019531 86.828125 C 79.511719 86.625 82.988281 86.035156 84.421875 83.273438 C 84.808594 82.53125 85.054688 81.621094 85.179688 80.496094 C 85.71875 75.539062 85.28125 64.945312 85.160156 63.769531 C 84.570312 57.867188 84.761719 55.597656 85 52.71875 C 85.160156 50.765625 85.347656 48.554688 85.347656 44.679688 C 85.347656 43.570312 85.304688 41.457031 85.261719 39.160156 C 85.195312 35.894531 85.125 32.199219 85.15625 30.59375 C 85.292969 23.855469 85.292969 20.214844 85.15625 18.035156 C 84.679688 10.351562 81.667969 8.882812 76.28125 8.875 C 66.429688 9.515625 64.1875 9.449219 60.46875 9.335938 C 58.699219 9.285156 56.589844 9.21875 53.128906 9.21875 C 52.359375 9.21875 50.625 9.371094 48.949219 9.515625 C 46.859375 9.699219 44.695312 9.882812 43.695312 9.855469 C 36.941406 9.636719 34.324219 9.703125 29.898438 9.992188 C 28.15625 10.109375 25.902344 10.058594 23.519531 10.007812 C 22.296875 9.976562 20.910156 9.949219 19.515625 9.949219 Z M 19.515625 9.949219 "/>
<path style=" stroke:none;fill-rule:nonzero;fill:rgb(24.705882%,61.176473%,89.019608%);fill-opacity:1;" d="M 70.128906 24.714844 C 64.992188 24.707031 64.394531 24.625 59.082031 24.300781 C 53.957031 23.984375 47.839844 25.277344 42.707031 25.277344 C 35.875 25.277344 36.390625 25.179688 26.28125 25.324219 C 25.117188 25.339844 21.785156 25.066406 20.046875 26.089844 C 17.472656 27.605469 17.429688 31.214844 17.492188 33.039062 C 17.648438 37.660156 17.816406 39.789062 17.984375 41.285156 C 27.484375 41.6875 35.886719 41.757812 45.765625 41.363281 C 52.066406 41.109375 57.011719 41.121094 64.441406 41.339844 C 68.945312 41.46875 71.894531 40.898438 74.902344 41.234375 L 75.242188 41.058594 C 75.277344 37.835938 75.433594 34.585938 75.695312 30.792969 C 75.867188 28.320312 74.128906 24.722656 70.128906 24.714844 Z M 33.507812 35.617188 C 33.3125 35.9375 33.101562 36.269531 32.773438 36.457031 C 32.253906 36.75 31.675781 36.617188 31.078125 36.683594 C 30.519531 36.742188 29.828125 36.496094 29.308594 36.347656 C 28.386719 36.078125 27.476562 35.289062 27.242188 34.355469 C 27.148438 33.972656 27.222656 33.574219 27.292969 33.191406 C 27.351562 32.867188 27.414062 32.535156 27.605469 32.261719 C 28.046875 31.621094 28.988281 30.128906 30.71875 30.132812 C 31.65625 30.078125 32.625 30.355469 33.339844 30.964844 C 34.054688 31.574219 34.488281 32.523438 34.398438 33.457031 C 34.328125 34.242188 33.917969 34.949219 33.507812 35.617188 Z M 51.902344 34.035156 C 51.605469 34.808594 51.148438 35.355469 50.371094 35.890625 C 50.097656 36.078125 49.304688 36.21875 48.972656 36.214844 C 47.457031 36.191406 46.804688 36.136719 46.039062 35.613281 C 45.242188 35.066406 45 34.058594 44.902344 33.21875 C 44.792969 32.265625 45.042969 31.453125 46.058594 30.589844 C 46.433594 30.269531 46.9375 29.988281 47.898438 29.949219 C 49.003906 29.6875 50.324219 30.113281 51.011719 30.550781 C 51.699219 30.988281 52.035156 31.609375 52.101562 32.421875 C 52.148438 33.050781 52.128906 33.441406 51.902344 34.035156 Z M 67.679688 34.277344 C 67.128906 35.136719 66.085938 35.53125 65.785156 35.527344 C 65.347656 35.527344 64.808594 35.6875 64.140625 35.628906 C 63.050781 35.539062 62.523438 35.386719 61.761719 34.605469 C 61.542969 34.378906 60.890625 33.660156 60.835938 33.347656 C 60.589844 31.976562 60.726562 31.292969 61.378906 30.4375 C 62.027344 29.582031 63.210938 29.175781 64.253906 29.449219 C 65.375 29.363281 66.527344 30.234375 67.164062 30.808594 C 67.800781 31.382812 68.257812 32.230469 68.148438 33.078125 C 68.09375 33.507812 67.910156 33.910156 67.679688 34.277344 Z M 67.679688 34.277344 "/>
<path style=" stroke:none;fill-rule:nonzero;fill:rgb(38.039216%,81.568629%,58.431375%);fill-opacity:1;" d="M 17.738281 38.402344 C 17.738281 38.382812 17.738281 38.371094 17.734375 38.355469 C 17.738281 38.371094 17.738281 38.382812 17.738281 38.402344 Z M 17.738281 38.402344 "/>
<path style=" stroke:none;fill-rule:nonzero;fill:rgb(38.039216%,81.568629%,58.431375%);fill-opacity:1;" d="M 17.660156 37.058594 C 17.65625 36.929688 17.648438 36.785156 17.640625 36.644531 C 17.648438 36.785156 17.652344 36.929688 17.660156 37.058594 Z M 17.660156 37.058594 "/>
<path style=" stroke:none;fill-rule:nonzero;fill:rgb(38.039216%,81.568629%,58.431375%);fill-opacity:1;" d="M 17.585938 35.457031 C 17.578125 35.292969 17.570312 35.132812 17.5625 34.960938 C 17.570312 35.132812 17.578125 35.292969 17.585938 35.457031 Z M 17.585938 35.457031 "/>
<path style=" stroke:none;fill-rule:nonzero;fill:rgb(38.039216%,81.568629%,58.431375%);fill-opacity:1;" d="M 17.835938 39.714844 C 17.828125 39.617188 17.820312 39.523438 17.8125 39.421875 C 17.820312 39.519531 17.828125 39.617188 17.835938 39.714844 Z M 17.835938 39.714844 "/>
<path style=" stroke:none;fill-rule:nonzero;fill:rgb(38.039216%,81.568629%,58.431375%);fill-opacity:1;" d="M 75.519531 33.5625 C 75.570312 32.667969 75.632812 31.75 75.699219 30.792969 C 75.632812 31.75 75.570312 32.671875 75.519531 33.5625 Z M 75.519531 33.5625 "/>
<path style=" stroke:none;fill-rule:nonzero;fill:rgb(38.039216%,81.568629%,58.431375%);fill-opacity:1;" d="M 75.867188 65.277344 C 75.792969 59.890625 75.664062 58.308594 75.59375 52.425781 C 75.3125 48.199219 75.207031 44.636719 75.246094 41.042969 C 75.246094 41.046875 75.246094 41.054688 75.246094 41.058594 L 74.90625 41.230469 C 71.898438 40.898438 68.949219 41.464844 64.445312 41.335938 C 57.015625 41.117188 52.070312 41.109375 45.769531 41.359375 C 35.890625 41.757812 27.484375 41.6875 17.988281 41.285156 C 18.277344 43.800781 18.578125 44.519531 18.867188 52.304688 C 19.144531 59.875 18.996094 64.535156 18.964844 65.207031 C 18.796875 69.023438 18.640625 74.816406 24.066406 74.179688 C 31.402344 73.3125 34.59375 74.371094 41.976562 74.230469 C 52.5 74.03125 58.789062 74.0625 71.460938 73.46875 C 72.753906 73.40625 74.742188 72.097656 75.265625 70.648438 C 75.863281 68.976562 75.878906 66.363281 75.867188 65.277344 Z M 75.867188 65.277344 "/>
<path style=" stroke:none;fill-rule:nonzero;fill:rgb(38.039216%,81.568629%,58.431375%);fill-opacity:1;" d="M 17.914062 40.605469 C 17.90625 40.515625 17.898438 40.421875 17.890625 40.328125 C 17.898438 40.421875 17.90625 40.515625 17.914062 40.605469 Z M 17.914062 40.605469 "/>
<path style=" stroke:none;fill-rule:nonzero;fill:rgb(0.392157%,0.392157%,0.392157%);fill-opacity:1;" d="M 40.613281 75.242188 C 38.277344 75.242188 36.382812 75.128906 34.539062 75.023438 C 31.296875 74.828125 28.496094 74.664062 24.183594 75.171875 C 22.394531 75.378906 20.949219 74.992188 19.894531 74.011719 C 17.664062 71.941406 17.847656 67.859375 17.964844 65.160156 C 17.96875 65.117188 18.164062 60.445312 17.867188 52.34375 C 17.640625 46.230469 17.40625 44.511719 17.179688 42.847656 C 16.9375 41.058594 16.707031 39.375 16.496094 33.070312 C 16.445312 31.605469 16.292969 27.136719 19.542969 25.226562 C 21.234375 24.230469 23.949219 24.28125 25.570312 24.3125 C 25.847656 24.320312 26.089844 24.324219 26.265625 24.320312 C 33.148438 24.21875 35.113281 24.234375 37.8125 24.257812 C 39.085938 24.265625 40.519531 24.277344 42.707031 24.277344 C 44.925781 24.277344 47.300781 24.03125 49.816406 23.773438 C 52.953125 23.453125 56.207031 23.125 59.144531 23.300781 L 60.953125 23.414062 C 64.675781 23.644531 65.675781 23.707031 70.132812 23.714844 C 72.003906 23.71875 73.628906 24.410156 74.839844 25.710938 C 76.109375 27.074219 76.820312 29.046875 76.695312 30.863281 C 76.109375 39.320312 76.082031 44.742188 76.589844 52.359375 C 76.589844 52.378906 76.59375 52.394531 76.59375 52.414062 C 76.628906 55.46875 76.683594 57.363281 76.734375 59.230469 C 76.78125 60.960938 76.828125 62.675781 76.863281 65.265625 C 76.890625 66.96875 76.792969 69.34375 76.203125 70.988281 C 75.53125 72.855469 73.128906 74.390625 71.507812 74.464844 C 61.867188 74.921875 55.898438 75.011719 48.992188 75.113281 C 46.804688 75.148438 44.523438 75.179688 41.992188 75.230469 C 41.519531 75.238281 41.054688 75.242188 40.613281 75.242188 Z M 29.71875 72.835938 C 31.464844 72.835938 33.039062 72.929688 34.65625 73.027344 C 36.8125 73.152344 39.042969 73.292969 41.960938 73.230469 C 44.492188 73.1875 46.777344 73.148438 48.964844 73.117188 C 55.855469 73.011719 61.804688 72.921875 71.414062 72.472656 C 72.34375 72.429688 73.949219 71.351562 74.320312 70.3125 C 74.839844 68.878906 74.882812 66.550781 74.863281 65.292969 C 74.828125 62.714844 74.78125 61.011719 74.734375 59.289062 C 74.683594 57.414062 74.628906 55.519531 74.59375 52.464844 C 74.089844 44.859375 74.117188 39.164062 74.699219 30.726562 C 74.789062 29.464844 74.269531 28.03125 73.378906 27.070312 C 72.542969 26.175781 71.449219 25.71875 70.128906 25.714844 C 65.613281 25.707031 64.597656 25.644531 60.828125 25.410156 L 59.023438 25.296875 C 56.234375 25.121094 53.078125 25.449219 50.019531 25.765625 C 47.566406 26.015625 45.027344 26.277344 42.707031 26.277344 C 40.511719 26.277344 39.074219 26.265625 37.800781 26.257812 C 35.113281 26.234375 33.152344 26.21875 26.296875 26.320312 C 26.097656 26.320312 25.839844 26.320312 25.535156 26.3125 C 24.21875 26.285156 21.765625 26.238281 20.558594 26.949219 C 19.058594 27.828125 18.386719 29.808594 18.492188 33 C 18.703125 39.203125 18.929688 40.839844 19.160156 42.574219 C 19.394531 44.285156 19.636719 46.058594 19.863281 52.265625 C 20.164062 60.449219 19.964844 65.199219 19.964844 65.246094 C 19.867188 67.4375 19.707031 71.101562 21.257812 72.542969 C 21.875 73.113281 22.757812 73.320312 23.949219 73.183594 C 26.164062 72.925781 28.023438 72.835938 29.71875 72.835938 Z M 29.71875 72.835938 "/>
<path style=" stroke:none;fill-rule:nonzero;fill:rgb(0.392157%,0.392157%,0.392157%);fill-opacity:1;" d="M 48.984375 37.214844 C 48.976562 37.214844 48.964844 37.214844 48.953125 37.214844 C 47.417969 37.1875 46.496094 37.140625 45.472656 36.433594 C 44.160156 35.535156 43.972656 33.875 43.910156 33.328125 C 43.75 31.941406 44.226562 30.828125 45.40625 29.820312 C 46.050781 29.277344 46.777344 29.007812 47.761719 28.949219 C 49.109375 28.660156 50.65625 29.136719 51.546875 29.703125 C 52.480469 30.296875 53.003906 31.183594 53.09375 32.332031 C 53.15625 33.066406 53.132812 33.613281 52.835938 34.386719 C 52.472656 35.335938 51.890625 36.054688 50.945312 36.710938 C 50.425781 37.070312 49.417969 37.214844 48.984375 37.214844 Z M 48.625 30.863281 C 48.453125 30.863281 48.285156 30.882812 48.125 30.917969 C 48.066406 30.933594 48.003906 30.941406 47.941406 30.945312 C 47.199219 30.976562 46.910156 31.171875 46.703125 31.347656 C 45.933594 32.003906 45.824219 32.488281 45.894531 33.105469 C 45.992188 33.980469 46.226562 34.53125 46.601562 34.789062 C 47.097656 35.125 47.453125 35.191406 48.984375 35.214844 C 49.160156 35.203125 49.691406 35.121094 49.839844 35.046875 C 50.421875 34.640625 50.746094 34.253906 50.964844 33.679688 C 51.128906 33.253906 51.140625 33.011719 51.097656 32.503906 C 51.054688 31.976562 50.867188 31.644531 50.46875 31.390625 C 50.078125 31.140625 49.324219 30.863281 48.625 30.863281 Z M 47.894531 29.945312 L 47.914062 29.945312 Z M 47.894531 29.945312 "/>
<path style=" stroke:none;fill-rule:nonzero;fill:rgb(0.392157%,0.392157%,0.392157%);fill-opacity:1;" d="M 30.894531 37.691406 C 30.304688 37.691406 29.71875 37.515625 29.234375 37.367188 L 29.027344 37.304688 C 27.6875 36.917969 26.574219 35.828125 26.273438 34.59375 C 26.128906 33.996094 26.230469 33.429688 26.308594 33.011719 C 26.378906 32.644531 26.472656 32.144531 26.78125 31.695312 C 27.351562 30.867188 28.535156 29.144531 30.691406 29.136719 C 31.902344 29.082031 33.113281 29.460938 33.988281 30.207031 C 34.96875 31.042969 35.507812 32.328125 35.394531 33.554688 C 35.296875 34.605469 34.757812 35.492188 34.359375 36.140625 C 34.148438 36.488281 33.828125 37.011719 33.265625 37.328125 C 32.496094 37.769531 31.816406 37.613281 31.183594 37.679688 C 31.089844 37.6875 30.992188 37.691406 30.894531 37.691406 Z M 30.707031 31.132812 C 29.679688 31.132812 29.027344 31.960938 28.496094 32.734375 C 28.363281 32.929688 28.3125 33.179688 28.277344 33.375 C 28.230469 33.636719 28.175781 33.9375 28.21875 34.113281 C 28.347656 34.640625 28.949219 35.199219 29.589844 35.382812 L 29.816406 35.453125 C 30.1875 35.5625 30.699219 35.707031 30.976562 35.6875 C 31.53125 35.625 32.074219 35.703125 32.285156 35.585938 C 32.398438 35.519531 32.558594 35.257812 32.65625 35.097656 C 33.039062 34.472656 33.359375 33.90625 33.40625 33.363281 C 33.460938 32.785156 33.183594 32.140625 32.695312 31.726562 C 32.203125 31.304688 31.503906 31.089844 30.785156 31.132812 C 30.765625 31.132812 30.738281 31.128906 30.71875 31.132812 C 30.714844 31.132812 30.710938 31.132812 30.707031 31.132812 Z M 30.707031 31.132812 "/>
<path style=" stroke:none;fill-rule:nonzero;fill:rgb(0.392157%,0.392157%,0.392157%);fill-opacity:1;" d="M 64.433594 36.640625 C 64.3125 36.640625 64.1875 36.636719 64.054688 36.625 C 62.785156 36.519531 62.011719 36.292969 61.042969 35.300781 C 60.332031 34.5625 59.929688 33.964844 59.847656 33.527344 C 59.554688 31.890625 59.746094 30.925781 60.578125 29.828125 C 61.4375 28.703125 62.972656 28.152344 64.34375 28.441406 C 64.363281 28.441406 64.382812 28.441406 64.398438 28.441406 C 65.738281 28.441406 66.996094 29.3125 67.835938 30.066406 C 68.792969 30.929688 69.28125 32.105469 69.136719 33.203125 C 69.066406 33.738281 68.859375 34.277344 68.515625 34.8125 C 67.800781 35.933594 66.472656 36.523438 65.785156 36.523438 C 65.777344 36.523438 65.773438 36.523438 65.769531 36.523438 C 65.644531 36.523438 65.503906 36.546875 65.351562 36.566406 C 65.09375 36.605469 64.785156 36.640625 64.433594 36.640625 Z M 63.589844 30.363281 C 63.050781 30.363281 62.496094 30.617188 62.175781 31.042969 C 61.726562 31.632812 61.613281 32.023438 61.816406 33.171875 C 61.851562 33.195312 62.183594 33.605469 62.480469 33.910156 C 63.03125 34.476562 63.320312 34.558594 64.222656 34.632812 C 64.527344 34.660156 64.804688 34.625 65.097656 34.585938 C 65.351562 34.550781 65.609375 34.542969 65.789062 34.527344 C 65.871094 34.507812 66.507812 34.253906 66.835938 33.734375 C 67.019531 33.449219 67.125 33.1875 67.15625 32.949219 C 67.210938 32.507812 66.960938 31.972656 66.496094 31.550781 C 65.671875 30.808594 64.898438 30.402344 64.324219 30.445312 C 64.21875 30.453125 64.105469 30.441406 63.996094 30.410156 C 63.867188 30.378906 63.726562 30.363281 63.589844 30.363281 Z M 63.589844 30.363281 "/>
<path style=" stroke:none;fill-rule:nonzero;fill:rgb(0.392157%,0.392157%,0.392157%);fill-opacity:1;" d="M 32.996094 42.625 C 28.207031 42.625 23.332031 42.511719 17.945312 42.285156 C 17.394531 42.261719 16.964844 41.792969 16.988281 41.242188 C 17.011719 40.691406 17.53125 40.308594 18.03125 40.285156 C 28.121094 40.714844 36.40625 40.734375 45.726562 40.359375 C 51.851562 40.117188 56.753906 40.109375 64.472656 40.335938 C 66.515625 40.394531 68.261719 40.304688 69.800781 40.226562 C 71.6875 40.132812 73.320312 40.050781 75.015625 40.238281 C 75.5625 40.296875 75.960938 40.792969 75.898438 41.34375 C 75.839844 41.890625 75.359375 42.285156 74.792969 42.226562 C 73.261719 42.054688 71.703125 42.132812 69.902344 42.226562 C 68.320312 42.304688 66.535156 42.394531 64.414062 42.335938 C 56.75 42.113281 51.878906 42.117188 45.804688 42.359375 C 41.402344 42.539062 37.234375 42.625 32.996094 42.625 Z M 32.996094 42.625 "/>
<path style=" stroke:none;fill-rule:nonzero;fill:rgb(28.235295%,74.901962%,51.764709%);fill-opacity:1;" d="M 30.542969 20.117188 C 29.886719 20.375 28.734375 20.792969 28.363281 21.273438 C 27.988281 21.753906 27.925781 22.394531 27.90625 23.003906 C 27.832031 25.4375 28.273438 27.851562 28.714844 30.246094 C 28.757812 30.476562 28.878906 32.484375 30.375 32.746094 C 31.214844 32.894531 32.292969 32.898438 32.878906 32.285156 C 33.46875 31.667969 33.796875 30.375 34.039062 29.558594 C 34.476562 28.074219 34.835938 26.566406 35.113281 25.042969 C 35.28125 24.121094 35.417969 23.152344 35.132812 22.257812 C 34.851562 21.382812 34.164062 20.652344 33.308594 20.320312 C 32.453125 19.988281 31.679688 20.019531 30.542969 20.117188 "/>
<path style=" stroke:none;fill-rule:nonzero;fill:rgb(0.392157%,0.392157%,0.392157%);fill-opacity:1;" d="M 31.269531 33.832031 C 30.894531 33.832031 30.53125 33.792969 30.203125 33.734375 C 29.421875 33.597656 28.0625 32.988281 27.734375 30.464844 C 27.289062 28.019531 26.828125 25.527344 26.90625 22.972656 C 26.929688 22.222656 27.023438 21.363281 27.570312 20.65625 C 28.042969 20.050781 28.949219 19.664062 29.992188 19.257812 C 30.082031 19.222656 30.359375 19.132812 30.453125 19.125 C 31.617188 19.023438 32.59375 18.972656 33.671875 19.390625 C 34.808594 19.832031 35.710938 20.789062 36.085938 21.957031 C 36.441406 23.074219 36.28125 24.230469 36.097656 25.226562 C 35.816406 26.769531 35.449219 28.324219 35 29.84375 L 34.929688 30.085938 C 34.667969 30.992188 34.304688 32.242188 33.605469 32.976562 C 32.972656 33.632812 32.097656 33.832031 31.269531 33.832031 Z M 30.773438 21.105469 C 30.742188 21.113281 30.722656 21.125 30.722656 21.125 C 30.347656 21.269531 29.359375 21.65625 29.148438 21.890625 C 28.957031 22.136719 28.917969 22.609375 28.90625 23.035156 C 28.835938 25.378906 29.273438 27.761719 29.699219 30.066406 C 29.804688 30.871094 30.015625 31.675781 30.550781 31.769531 C 31.300781 31.898438 31.933594 31.832031 32.15625 31.597656 C 32.519531 31.21875 32.824219 30.160156 33.007812 29.53125 L 33.082031 29.277344 C 33.511719 27.828125 33.863281 26.34375 34.128906 24.871094 C 34.273438 24.078125 34.398438 23.246094 34.179688 22.566406 C 33.992188 21.980469 33.519531 21.480469 32.949219 21.261719 C 32.347656 21.023438 31.796875 21.015625 30.773438 21.105469 Z M 30.773438 21.105469 "/>
<path style=" stroke:none;fill-rule:nonzero;fill:rgb(28.235295%,74.901962%,51.764709%);fill-opacity:1;" d="M 48.632812 19.292969 C 47.460938 19.539062 46.929688 19.265625 45.773438 20.253906 C 45.261719 20.691406 44.996094 21.679688 45.015625 22.355469 C 45.03125 23.054688 45.113281 23.6875 45.140625 24.636719 C 45.179688 25.84375 45.457031 26.382812 45.691406 27.800781 C 45.8125 28.535156 45.988281 29.628906 46.140625 30.355469 C 46.34375 31.300781 46.949219 32.066406 47.835938 32.460938 C 48.710938 32.847656 49.777344 32.398438 50.378906 31.652344 C 50.980469 30.910156 51.214844 29.941406 51.394531 29.003906 C 51.921875 26.25 52.152344 24.273438 52.019531 21.472656 C 51.996094 21.011719 51.855469 20.351562 51.238281 19.863281 C 50.761719 19.480469 49.609375 19.167969 48.632812 19.292969 "/>
<path style=" stroke:none;fill-rule:nonzero;fill:rgb(28.235295%,74.901962%,51.764709%);fill-opacity:1;" d="M 65.199219 19.660156 C 64.066406 19.703125 62.84375 19.9375 62.105469 20.792969 C 61.394531 21.613281 61.3125 22.792969 61.308594 23.882812 C 61.292969 25.90625 61.425781 27.96875 62.136719 29.863281 C 62.375 30.496094 62.691406 31.125 63.191406 31.578125 C 63.695312 32.035156 64.410156 32.296875 65.0625 32.113281 C 65.394531 32.019531 65.6875 31.820312 65.96875 31.625 C 66.371094 31.351562 67.328125 29.816406 67.503906 29.363281 C 68.167969 27.621094 68.234375 27.0625 68.464844 25.355469 C 68.683594 23.738281 68.535156 24.367188 68.542969 22.734375 C 68.546875 21.246094 67.179688 19.449219 65.199219 19.660156 "/>
<path style=" stroke:none;fill-rule:nonzero;fill:rgb(0.392157%,0.392157%,0.392157%);fill-opacity:1;" d="M 48.515625 33.605469 C 48.152344 33.605469 47.785156 33.535156 47.429688 33.375 C 46.257812 32.855469 45.429688 31.832031 45.160156 30.5625 C 45.027344 29.917969 44.871094 28.984375 44.753906 28.265625 L 44.703125 27.96875 C 44.617188 27.449219 44.523438 27.050781 44.441406 26.695312 C 44.300781 26.089844 44.164062 25.515625 44.140625 24.671875 C 44.125 24.1875 44.097656 23.785156 44.070312 23.414062 C 44.042969 23.058594 44.023438 22.730469 44.011719 22.382812 C 43.988281 21.46875 44.324219 20.175781 45.121094 19.496094 C 46.199219 18.574219 46.953125 18.5 47.683594 18.425781 C 47.902344 18.398438 48.144531 18.378906 48.429688 18.316406 C 48.453125 18.3125 48.476562 18.308594 48.503906 18.304688 C 49.675781 18.160156 51.113281 18.488281 51.863281 19.082031 C 52.570312 19.648438 52.972656 20.457031 53.019531 21.429688 C 53.15625 24.394531 52.890625 26.523438 52.378906 29.191406 C 52.1875 30.195312 51.917969 31.347656 51.15625 32.285156 C 50.554688 33.027344 49.550781 33.605469 48.515625 33.605469 Z M 48.792969 20.285156 C 48.453125 20.351562 48.15625 20.382812 47.886719 20.410156 C 47.292969 20.472656 47.023438 20.5 46.421875 21.015625 C 46.226562 21.183594 45.996094 21.820312 46.011719 22.328125 C 46.019531 22.644531 46.042969 22.945312 46.066406 23.273438 C 46.09375 23.664062 46.125 24.09375 46.140625 24.609375 C 46.160156 25.25 46.257812 25.664062 46.390625 26.238281 C 46.480469 26.628906 46.582031 27.066406 46.679688 27.636719 L 46.726562 27.933594 C 46.839844 28.628906 46.988281 29.527344 47.117188 30.144531 C 47.253906 30.785156 47.652344 31.285156 48.238281 31.542969 C 48.621094 31.710938 49.230469 31.480469 49.601562 31.023438 C 50.070312 30.441406 50.265625 29.574219 50.410156 28.8125 C 50.90625 26.226562 51.148438 24.300781 51.023438 21.519531 C 51.003906 21.132812 50.871094 20.847656 50.617188 20.644531 C 50.390625 20.464844 49.542969 20.195312 48.792969 20.285156 Z M 48.792969 20.285156 "/>
<path style=" stroke:none;fill-rule:nonzero;fill:rgb(0.392157%,0.392157%,0.392157%);fill-opacity:1;" d="M 64.625 33.171875 C 63.882812 33.171875 63.121094 32.871094 62.515625 32.316406 C 61.796875 31.664062 61.417969 30.804688 61.199219 30.214844 C 60.386719 28.0625 60.292969 25.800781 60.304688 23.875 C 60.3125 22.550781 60.445312 21.183594 61.347656 20.136719 C 62.140625 19.214844 63.378906 18.734375 65.125 18.660156 C 66.230469 18.5625 67.292969 18.914062 68.125 19.664062 C 69.003906 20.457031 69.542969 21.632812 69.539062 22.738281 C 69.535156 23.300781 69.554688 23.578125 69.566406 23.78125 C 69.59375 24.226562 69.597656 24.417969 69.449219 25.488281 C 69.214844 27.257812 69.128906 27.890625 68.433594 29.71875 C 68.257812 30.179688 67.21875 31.976562 66.53125 32.449219 C 66.214844 32.664062 65.824219 32.9375 65.328125 33.074219 C 65.105469 33.140625 64.867188 33.171875 64.625 33.171875 Z M 65.511719 20.644531 C 65.445312 20.644531 65.375 20.644531 65.300781 20.652344 C 65.277344 20.65625 65.257812 20.65625 65.234375 20.660156 C 64.054688 20.703125 63.28125 20.960938 62.863281 21.449219 C 62.40625 21.972656 62.3125 22.800781 62.304688 23.886719 C 62.292969 25.632812 62.375 27.667969 63.070312 29.511719 C 63.304688 30.140625 63.558594 30.5625 63.863281 30.839844 C 64.148438 31.105469 64.519531 31.222656 64.785156 31.152344 C 64.964844 31.101562 65.175781 30.953125 65.402344 30.800781 C 65.632812 30.597656 66.4375 29.34375 66.5625 29.011719 C 67.179688 27.398438 67.242188 26.910156 67.460938 25.292969 C 67.59375 24.296875 67.589844 24.210938 67.570312 23.902344 C 67.554688 23.679688 67.535156 23.363281 67.539062 22.730469 C 67.539062 22.1875 67.246094 21.566406 66.785156 21.152344 C 66.523438 20.910156 66.09375 20.644531 65.511719 20.644531 Z M 65.199219 19.660156 L 65.21875 19.660156 Z M 65.199219 19.660156 "/>
<path style=" stroke:none;fill-rule:nonzero;fill:rgb(0.392157%,0.392157%,0.392157%);fill-opacity:1;" d="M 26.113281 54.488281 C 25.632812 54.488281 25.175781 54.460938 24.820312 54.367188 C 24.644531 54.320312 24.355469 54.242188 24.085938 54.011719 C 23.695312 53.679688 23.582031 53.226562 23.527344 53.011719 C 23.253906 51.898438 23.347656 50.730469 23.441406 49.597656 C 23.503906 48.855469 23.5625 48.152344 23.507812 47.53125 C 23.492188 47.363281 23.464844 46.984375 23.707031 46.613281 C 24.019531 46.136719 24.511719 46.050781 24.695312 46.019531 C 25.511719 45.875 26.449219 45.945312 27.359375 46.019531 C 28.144531 46.082031 28.957031 46.140625 29.523438 46.042969 C 29.5625 46.035156 29.605469 46.03125 29.648438 46.03125 C 30.597656 45.984375 31.550781 45.953125 32.503906 45.933594 C 32.671875 45.933594 33.191406 45.917969 33.574219 46.34375 C 33.953125 46.773438 33.898438 47.28125 33.878906 47.449219 C 33.785156 48.199219 33.816406 49.015625 33.851562 49.882812 C 33.894531 50.972656 33.941406 52.101562 33.730469 53.183594 C 33.695312 53.375 33.617188 53.773438 33.285156 54.09375 C 32.792969 54.578125 32.152344 54.492188 31.851562 54.460938 C 31.1875 54.378906 30.207031 54.398438 29.339844 54.425781 C 28.816406 54.4375 28.324219 54.453125 27.921875 54.441406 C 27.726562 54.441406 27.453125 54.449219 27.15625 54.460938 C 26.816406 54.476562 26.457031 54.488281 26.113281 54.488281 Z M 25.453125 52.453125 C 25.894531 52.511719 26.617188 52.484375 27.078125 52.464844 C 27.417969 52.453125 27.730469 52.441406 27.960938 52.445312 C 28.335938 52.453125 28.800781 52.4375 29.289062 52.425781 C 30.175781 52.402344 31.082031 52.378906 31.824219 52.449219 C 31.925781 51.65625 31.890625 50.828125 31.855469 49.964844 C 31.828125 49.300781 31.800781 48.621094 31.835938 47.953125 C 31.152344 47.96875 30.476562 47.992188 29.804688 48.027344 C 29.003906 48.15625 28.089844 48.085938 27.207031 48.015625 C 26.625 47.96875 26.03125 47.921875 25.53125 47.941406 C 25.539062 48.554688 25.488281 49.164062 25.4375 49.765625 C 25.355469 50.742188 25.277344 51.675781 25.453125 52.453125 Z M 25.453125 52.453125 "/>
<path style=" stroke:none;fill-rule:nonzero;fill:rgb(0.392157%,0.392157%,0.392157%);fill-opacity:1;" d="M 43.640625 54.847656 C 43.433594 54.847656 43.175781 54.816406 42.914062 54.683594 C 42.460938 54.453125 42.25 54.046875 42.132812 53.765625 C 41.410156 52.058594 41.484375 50.777344 41.570312 49.289062 C 41.601562 48.789062 41.628906 48.242188 41.632812 47.621094 C 41.484375 46.988281 41.761719 46.601562 42.015625 46.390625 C 42.367188 46.109375 42.753906 46.109375 42.898438 46.109375 L 47.605469 46.148438 C 48.824219 46.109375 49.3125 46.144531 50.117188 46.203125 L 50.492188 46.230469 C 51.285156 46.285156 51.949219 46.875 52.101562 47.667969 L 52.222656 48.300781 C 52.515625 49.828125 52.769531 51.144531 52.644531 52.871094 C 52.605469 53.449219 52.371094 53.863281 51.957031 54.101562 C 51.707031 54.242188 51.472656 54.269531 51.359375 54.28125 C 50.027344 54.433594 48.816406 54.492188 47.605469 54.558594 C 46.433594 54.617188 45.261719 54.679688 43.964844 54.828125 C 43.886719 54.835938 43.777344 54.847656 43.640625 54.847656 Z M 43.625 48.117188 C 43.613281 48.578125 43.589844 49.003906 43.566406 49.402344 C 43.488281 50.757812 43.441406 51.660156 43.933594 52.882812 C 45.148438 52.683594 46.324219 52.621094 47.503906 52.5625 C 48.53125 52.507812 49.558594 52.457031 50.671875 52.34375 C 50.714844 51.046875 50.511719 49.984375 50.257812 48.679688 L 50.171875 48.214844 L 49.96875 48.199219 C 49.195312 48.140625 48.78125 48.109375 47.652344 48.148438 C 47.636719 48.148438 47.625 48.152344 47.609375 48.148438 Z M 50.355469 48.222656 Z M 50.355469 48.222656 "/>
<path style=" stroke:none;fill-rule:nonzero;fill:rgb(0.392157%,0.392157%,0.392157%);fill-opacity:1;" d="M 65.960938 54.761719 C 65.144531 54.761719 64.34375 54.71875 63.558594 54.679688 C 62.273438 54.609375 61.058594 54.546875 59.828125 54.652344 C 58.910156 54.742188 58.277344 54.46875 57.9375 53.871094 C 57.722656 53.492188 57.726562 53.105469 57.730469 52.894531 C 57.730469 52.019531 57.800781 51.453125 57.871094 50.878906 C 57.960938 50.144531 58.046875 49.449219 57.972656 47.921875 C 57.90625 47.472656 57.773438 46.554688 58.613281 46.113281 C 58.941406 45.941406 59.253906 45.949219 59.429688 45.949219 C 60.117188 45.964844 61.148438 46.039062 62.191406 46.109375 C 63.207031 46.183594 64.230469 46.253906 64.898438 46.269531 C 64.902344 46.269531 64.902344 46.269531 64.90625 46.269531 L 65.65625 46.304688 C 66.371094 46.34375 66.667969 46.359375 67.957031 46.152344 C 68.269531 46.097656 68.566406 46.195312 68.792969 46.398438 C 69.015625 46.605469 69.136719 46.902344 69.117188 47.207031 C 69.054688 48.085938 69.085938 48.855469 69.117188 49.601562 C 69.160156 50.78125 69.210938 51.996094 68.878906 53.523438 C 68.839844 53.703125 68.753906 54.089844 68.40625 54.382812 C 68.074219 54.648438 67.730469 54.683594 67.566406 54.699219 C 67.027344 54.742188 66.488281 54.761719 65.960938 54.761719 Z M 61.257812 52.597656 C 62.074219 52.597656 62.878906 52.636719 63.664062 52.679688 C 64.808594 52.738281 65.894531 52.800781 66.996094 52.730469 C 67.195312 51.613281 67.15625 50.707031 67.117188 49.679688 C 67.101562 49.230469 67.078125 48.777344 67.078125 48.289062 C 66.480469 48.347656 66.105469 48.332031 65.546875 48.300781 L 64.839844 48.269531 C 64.148438 48.253906 63.097656 48.179688 62.046875 48.105469 C 61.308594 48.054688 60.574219 48 59.972656 47.972656 C 60.042969 49.574219 59.945312 50.363281 59.851562 51.125 C 59.796875 51.570312 59.742188 52.015625 59.726562 52.65625 C 60.242188 52.613281 60.753906 52.597656 61.257812 52.597656 Z M 61.257812 52.597656 "/>
<path style=" stroke:none;fill-rule:nonzero;fill:rgb(0.392157%,0.392157%,0.392157%);fill-opacity:1;" d="M 25.230469 68.339844 C 24.617188 68.339844 24.171875 68.128906 23.902344 67.707031 C 23.710938 67.40625 23.644531 67.03125 23.710938 66.652344 C 24.003906 65.007812 23.941406 64.023438 23.878906 62.980469 C 23.835938 62.234375 23.785156 61.464844 23.851562 60.445312 C 23.867188 60.207031 24.019531 59.8125 24.1875 59.640625 C 24.363281 59.460938 24.6875 59.261719 25.191406 59.296875 C 26.269531 59.359375 27.640625 59.351562 29.027344 59.339844 C 30.605469 59.335938 32.230469 59.320312 33.511719 59.414062 C 33.871094 59.445312 34.1875 59.660156 34.339844 59.988281 C 34.632812 60.613281 34.582031 61.320312 34.53125 62.007812 C 34.507812 62.351562 34.476562 62.703125 34.515625 63.027344 C 34.699219 64.675781 34.605469 65.472656 34.386719 66.980469 C 34.269531 67.773438 33.84375 68.089844 33.503906 68.214844 C 33.390625 68.253906 33.109375 68.292969 32.992188 68.292969 L 25.261719 68.339844 C 25.25 68.339844 25.242188 68.339844 25.230469 68.339844 Z M 25.820312 61.320312 C 25.816406 61.875 25.847656 62.355469 25.875 62.855469 C 25.933594 63.832031 25.996094 64.839844 25.785156 66.335938 L 32.464844 66.296875 C 32.625 65.144531 32.671875 64.507812 32.527344 63.253906 C 32.476562 62.808594 32.507812 62.328125 32.539062 61.863281 C 32.546875 61.71875 32.5625 61.539062 32.566406 61.367188 C 31.507812 61.324219 30.261719 61.335938 29.039062 61.339844 C 27.914062 61.351562 26.796875 61.351562 25.820312 61.320312 Z M 25.050781 61.289062 C 25.054688 61.289062 25.054688 61.289062 25.058594 61.289062 C 25.054688 61.289062 25.054688 61.289062 25.050781 61.289062 Z M 25.050781 61.289062 "/>
<path style=" stroke:none;fill-rule:nonzero;fill:rgb(0.392157%,0.392157%,0.392157%);fill-opacity:1;" d="M 43.449219 68.445312 C 43.28125 68.445312 43.074219 68.421875 42.859375 68.320312 C 42.558594 68.191406 42.164062 67.878906 42.011719 67.171875 C 41.875 66.539062 41.976562 65.84375 42.078125 65.171875 C 42.136719 64.761719 42.203125 64.339844 42.179688 64.082031 C 42.144531 63.722656 42.140625 63.457031 42.136719 63.199219 C 42.132812 62.910156 42.128906 62.640625 42.070312 62.21875 C 41.945312 61.34375 41.957031 61.003906 42.125 60.6875 C 42.351562 60.261719 42.738281 60.101562 42.863281 60.046875 C 43.609375 59.742188 44.378906 59.765625 45 59.78125 L 47.5 59.859375 C 48.164062 59.851562 48.742188 59.816406 49.269531 59.785156 C 50.460938 59.710938 51.492188 59.648438 52.632812 59.945312 C 53.078125 60.058594 53.386719 60.460938 53.382812 60.914062 C 53.382812 61.660156 53.449219 62.371094 53.515625 63.066406 C 53.632812 64.3125 53.753906 65.597656 53.503906 67.003906 C 53.46875 67.203125 53.3125 67.53125 53.171875 67.675781 C 52.867188 67.964844 52.527344 68.003906 52.417969 68.015625 C 51.015625 68.167969 49.46875 68.199219 47.976562 68.226562 C 46.527344 68.253906 45.027344 68.28125 43.710938 68.429688 C 43.644531 68.4375 43.554688 68.445312 43.449219 68.445312 Z M 44.03125 61.796875 C 44.039062 61.851562 44.042969 61.898438 44.046875 61.925781 C 44.125 62.464844 44.132812 62.804688 44.136719 63.164062 C 44.140625 63.378906 44.140625 63.605469 44.171875 63.902344 C 44.210938 64.394531 44.132812 64.941406 44.054688 65.460938 C 44.011719 65.777344 43.960938 66.117188 43.949219 66.390625 C 45.253906 66.277344 46.617188 66.25 47.941406 66.222656 C 49.179688 66.199219 50.449219 66.175781 51.613281 66.078125 C 51.703125 65.140625 51.617188 64.21875 51.527344 63.253906 C 51.480469 62.761719 51.433594 62.261719 51.40625 61.75 C 50.808594 61.691406 50.179688 61.726562 49.390625 61.777344 C 48.828125 61.8125 48.214844 61.847656 47.507812 61.859375 C 47.492188 61.859375 47.476562 61.859375 47.464844 61.859375 L 44.941406 61.78125 C 44.625 61.773438 44.308594 61.761719 44.03125 61.796875 Z M 44.03125 61.796875 "/>
<path style=" stroke:none;fill-rule:nonzero;fill:rgb(0.392157%,0.392157%,0.392157%);fill-opacity:1;" d="M 61.988281 68.058594 C 61.261719 68.058594 60.523438 68.015625 59.78125 67.839844 C 59.628906 67.800781 59.261719 67.714844 58.953125 67.429688 C 58.570312 67.070312 58.484375 66.597656 58.449219 66.390625 C 58.242188 65.242188 58.253906 64.117188 58.261719 63.027344 L 58.285156 60.488281 C 58.285156 60.363281 58.285156 59.949219 58.59375 59.601562 C 58.882812 59.277344 59.246094 59.210938 59.367188 59.1875 C 60.792969 58.898438 62.265625 58.84375 63.726562 59.019531 C 64.359375 59.03125 64.898438 59.023438 65.40625 59.019531 C 66.261719 59.011719 67.035156 59.007812 68.015625 59.050781 C 68.902344 59.09375 69.585938 59.824219 69.570312 60.71875 C 69.554688 61.441406 69.621094 62.171875 69.691406 62.933594 C 69.792969 64.113281 69.90625 65.449219 69.777344 66.949219 C 69.753906 67.21875 69.621094 67.46875 69.40625 67.640625 C 69.199219 67.808594 68.9375 67.894531 68.652344 67.851562 C 67.6875 67.726562 66.523438 67.820312 65.402344 67.90625 C 64.777344 67.957031 64.15625 68.007812 63.578125 68.023438 L 63.066406 68.035156 C 62.710938 68.046875 62.351562 68.058594 61.988281 68.058594 Z M 60.40625 65.980469 C 61.171875 66.097656 62.058594 66.0625 63.007812 66.039062 L 63.53125 66.023438 C 64.074219 66.011719 64.65625 65.964844 65.246094 65.914062 C 66.101562 65.847656 66.976562 65.792969 67.835938 65.792969 C 67.851562 64.847656 67.773438 63.96875 67.699219 63.105469 C 67.636719 62.394531 67.574219 61.707031 67.570312 61.035156 C 66.796875 61.007812 66.144531 61.015625 65.421875 61.019531 C 64.886719 61.019531 64.320312 61.027344 63.648438 61.019531 C 63.609375 61.019531 63.570312 61.015625 63.53125 61.011719 C 62.445312 60.871094 61.355469 60.886719 60.28125 61.050781 L 60.261719 63.035156 C 60.253906 64.023438 60.246094 65.03125 60.40625 65.980469 Z M 60.40625 65.980469 "/>
</g>
</svg>
