<svg id="visual" viewBox="0 0 450 500" width="450" height="500" xmlns="http://www.w3.org/2000/svg" xmlns:xlink="http://www.w3.org/1999/xlink" version="1.1"><rect x="0" y="0" width="450" height="500" fill="#F3EFF5"></rect><g transform="translate(424.10547198301504 475.85042981757306)"><path d="M226.3 -248.4C294.1 -212.9 350.4 -142.3 365.3 -63.6C380.3 15.2 353.8 102.1 292.4 131.7C231.1 161.2 134.8 133.5 54.6 172.5C-25.6 211.4 -89.8 317.1 -140.6 325.2C-191.5 333.2 -229.1 243.6 -264.5 162.4C-299.9 81.1 -333.1 8.3 -309.9 -42.7C-286.7 -93.6 -207 -122.7 -145.9 -159.4C-84.8 -196.1 -42.4 -240.6 18.4 -262.5C79.3 -284.5 158.6 -284 226.3 -248.4" fill="#61d095"></path></g></svg>