
  <svg
    width="2000"
    height="2000"
    viewBox="0 0 1000 1000"
    xmlns="http://www.w3.org/2000/svg"
  >
    <defs>
      
      
      <linearGradient id="linearGradientId" gradientTransform="rotate(150 0.5 0.5)">
      <stop offset="0%"  stop-color="#3e9ae1" />
			<stop offset="100%"  stop-color="#1b67a2" />
    </linearGradient>
      
      
      
      
      <clipPath id="shape">
        <path fill="currentColor" d="M913.5,645Q900,790,769,857Q638,924,504,912Q370,900,256.5,829.5Q143,759,95.5,629.5Q48,500,82.5,361Q117,222,245,166.5Q373,111,512,74Q651,37,777,122Q903,207,915,353.5Q927,500,913.5,645Z"></path>
      </clipPath>
    </defs>
  
    

    <g  clip-path="url(#shape)">
      <path fill="url(#linearGradientId)" d="M913.5,645Q900,790,769,857Q638,924,504,912Q370,900,256.5,829.5Q143,759,95.5,629.5Q48,500,82.5,361Q117,222,245,166.5Q373,111,512,74Q651,37,777,122Q903,207,915,353.5Q927,500,913.5,645Z" />
    </g>

    
  
  </svg>