<svg style="object-fit:cover" id="my-svg" version="1" baseProfile="full" width="100%" height="100%" viewBox="0 0 1536 714" xmlns="http://www.w3.org/2000/svg"><rect width="1536" height="714" fill="#f3eff5"/><defs><linearGradient id="linear-gradient" x1="1" x2="0" y1="0" y2="1"><stop offset="0%" stop-color="#3eb6dfff"/><stop offset="100%" stop-color="#202866ff"/></linearGradient></defs><path transform="scale(1, 1)" style="transform-origin:center" d="M 0,714 V 0,142 C 38.26704388052758,160.04659227313653 76.53408776105516,178.09318454627302 114,185 C 151.46591223894484,191.90681545372698 188.13069283630696,187.67385408804446 219,186 C 249.86930716369304,184.32614591195554 274.9431408937171,185.21139910154903 311,166 C 347.0568591062829,146.78860089845097 394.0967435888247,107.48054950575931 432,105 C 469.9032564111753,102.51945049424069 498.6698847509841,136.86640287541368 532,154 C 565.3301152490159,171.13359712458632 603.2237174072386,171.05383899258595 645,156 C 686.7762825927614,140.94616100741405 732.4352456200618,110.91824115424251 766,94 C 799.5647543799382,77.08175884575749 821.035300112514,73.27319639044396 862,92 C 902.964699887486,110.72680360955604 963.4235539298813,151.9889732839817 1003,162 C 1042.5764460701187,172.0110267160183 1061.2704841679601,150.77091047362921 1097,138 C 1132.7295158320399,125.2290895263708 1185.4945093982788,120.92738482150145 1225,131 C 1264.5054906017212,141.07261517849855 1290.7514782389248,165.51955024036502 1318,165 C 1345.2485217610752,164.48044975963498 1373.4995776460214,138.99441421703858 1410,131 C 1446.5004223539786,123.00558578296143 1491.2502111769893,132.5027928914807 1536,142 C 1536,142 1536,714 1536,714 Z" stroke="none" stroke-width="0" fill="url(#linear-gradient)" class="transition-all duration-300 ease-in-out delay-150"/></svg>