<svg xmlns="http://www.w3.org/2000/svg" version="1.1" xmlns:xlink="http://www.w3.org/1999/xlink" xmlns:svgjs="http://svgjs.com/svgjs" width="1440" height="560" preserveAspectRatio="none" viewBox="0 0 1440 560"><g mask="url(&quot;#SvgjsMask1007&quot;)" fill="none"><rect width="1440" height="560" x="0" y="0" fill="rgba(243, 239, 245, 1)"></rect><path d="M246.94 622.85C428.7 622.15 592.14 482.96 959.83 480.17 1327.52 477.38 1486.34 264.2 1672.72 261.77" stroke="rgba(97, 208, 149, 1)" stroke-width="2"></path><path d="M44.84 652.17C180.09 642.78 274.66 383.09 515.02 381.98 755.38 380.87 750.11 451.98 985.2 451.98 1220.29 451.98 1336.54 382.17 1455.38 381.98" stroke="rgba(97, 208, 149, 1)" stroke-width="2"></path><path d="M683.04 584.78C765.2 582.89 743.93 474.96 990.74 469.11 1237.55 463.26 1441.48 237.87 1606.14 233.91" stroke="rgba(97, 208, 149, 1)" stroke-width="2"></path><path d="M630.56 624.65C810.67 589.87 895.2 133.51 1174.23 131.87 1453.26 130.23 1569.34 367.36 1717.9 372.67" stroke="rgba(97, 208, 149, 1)" stroke-width="2"></path><path d="M762.56 581.81C897.27 568.89 962.73 296.51 1214.88 284.42 1467.04 272.33 1547.99 135.2 1667.21 133.22" stroke="rgba(97, 208, 149, 1)" stroke-width="2"></path></g><defs><mask id="SvgjsMask1007"><rect width="1440" height="560" fill="#ffffff"></rect></mask></defs></svg>