<svg style="object-fit:cover" id="my-svg" version="1" baseProfile="full" width="100%" height="100%" viewBox="0 0 1536 714" xmlns="http://www.w3.org/2000/svg"><rect width="1536" height="714" fill="#f3eff5"/><defs><linearGradient id="linear-gradient" x1="1" x2="0" y1="0" y2="1"><stop offset="0%" stop-color="#3eb6dfff"/><stop offset="100%" stop-color="#202866ff"/></linearGradient></defs><path transform="scale(1, -1)" style="transform-origin:center" d="M 0,714 V 0,142 C 24.597286196839704,137.01604597642256 49.19457239367941,132.03209195284515 92,135 C 134.8054276063206,137.96790804715485 195.81899662212209,148.88767816504196 236,153 C 276.1810033778779,157.11232183495804 295.52944111783245,154.41719538698703 324,135 C 352.47055888216755,115.58280461301295 390.06323890654807,79.44354028700994 430,92 C 469.93676109345193,104.55645971299006 512.2176032559753,165.80864346497322 552,180 C 591.7823967440247,194.19135653502678 629.0663480695514,161.32188585309711 668,154 C 706.9336519304486,146.67811414690289 747.5170044658194,164.90381312263827 786,172 C 824.4829955341806,179.09618687736173 860.8656340671712,175.0628616563498 893,164 C 925.1343659328288,152.9371383436502 953.0204592654953,134.84474025196252 986,140 C 1018.9795407345047,145.15525974803748 1057.052528870848,173.55817733580008 1091,165 C 1124.947471129152,156.44182266419992 1154.769425251113,110.92255040483708 1191,117 C 1227.230574748887,123.07744959516292 1269.8697701247006,180.75162104485153 1310,192 C 1350.1302298752994,203.24837895514847 1387.7514942500854,168.07096541575672 1425,152 C 1462.2485057499146,135.92903458424328 1499.1242528749572,138.96451729212163 1536,142 C 1536,142 1536,714 1536,714 Z" stroke="none" stroke-width="0" fill="url(#linear-gradient)" class="transition-all duration-300 ease-in-out delay-150"/></svg>