<svg id="visual" viewBox="0 0 450 900" width="450" height="900" xmlns="http://www.w3.org/2000/svg" xmlns:xlink="http://www.w3.org/1999/xlink" version="1.1"><rect x="0" y="0" width="450" height="900" fill="#0D72BF"></rect><path d="M0 675L15 656.2C30 637.3 60 599.7 90 614.8C120 630 150 698 180 709.8C210 721.7 240 677.3 270 682.8C300 688.3 330 743.7 360 740.8C390 738 420 677 435 646.5L450 616L450 901L435 901C420 901 390 901 360 901C330 901 300 901 270 901C240 901 210 901 180 901C150 901 120 901 90 901C60 901 30 901 15 901L0 901Z" fill="#F3EFF5" stroke-linecap="round" stroke-linejoin="miter"></path></svg>