<svg id="visual" viewBox="0 0 450 600" width="450" height="600" xmlns="http://www.w3.org/2000/svg" xmlns:xlink="http://www.w3.org/1999/xlink" version="1.1"><rect x="0" y="0" width="450" height="600" fill="#F3EFF5"></rect><g transform="translate(511.4928333928432 493.4762297187184)"><path d="M220.3 -229C301.7 -194.2 395.1 -140.2 465.6 -38C536.1 64.1 583.7 214.3 546.6 350.5C509.6 486.7 387.8 608.9 243.1 656.7C98.4 704.5 -69.3 677.8 -197.1 604.2C-324.9 530.5 -412.7 409.7 -502.5 278.4C-592.2 147.1 -683.9 5.2 -682.5 -140.8C-681.1 -286.8 -586.8 -436.8 -457.5 -463.2C-328.3 -489.6 -164.1 -392.5 -47.4 -336C69.4 -279.6 138.8 -263.9 220.3 -229" fill="#3f9ce3"></path></g></svg>