<svg id="visual" viewBox="0 0 900 900" width="900" height="900" xmlns="http://www.w3.org/2000/svg" xmlns:xlink="http://www.w3.org/1999/xlink" version="1.1"><rect x="0" y="0" width="900" height="900" fill="#F3EFF5"></rect><g transform="translate(453.1183092439753 464.9765647558678)"><path d="M169.1 -267.6C186.9 -219.8 147 -127.3 156.4 -59.9C165.8 7.5 224.6 49.8 238.5 99.3C252.4 148.8 221.4 205.4 174.2 215.9C127 226.4 63.5 190.7 -12.3 207.7C-88.2 224.7 -176.3 294.4 -203.1 277.2C-229.9 260.1 -195.3 156.2 -201 79.3C-206.7 2.5 -252.7 -47.3 -247.7 -86.1C-242.8 -124.8 -186.9 -152.6 -137.2 -190.1C-87.4 -227.6 -43.7 -274.8 16 -296.8C75.6 -318.8 151.3 -315.5 169.1 -267.6" fill="#3f9ce3"></path></g></svg>